<svg width="28" height="28" viewBox="0 0 28 28" fill="none" xmlns="http://www.w3.org/2000/svg">
<path fill-rule="evenodd" clip-rule="evenodd" d="M23.6511 4.09883C22.8132 3.35894 21.5387 3.40396 20.7559 4.20117L12.7251 12.1308C12.3321 12.5188 12.3281 13.152 12.7161 13.545C13.1041 13.938 13.7373 13.942 14.1303 13.5539L22.1674 5.61804L22.1824 5.603C22.2196 5.56458 22.2858 5.56135 22.3273 5.59799C22.3635 5.62997 22.3658 5.67879 22.3371 5.71307L22.3227 5.73075L15.1906 14.6721C14.8462 15.1039 14.9171 15.733 15.3488 16.0774C15.7806 16.4218 16.4098 16.351 16.7542 15.9192L23.8802 6.98543C24.5961 6.11794 24.494 4.84318 23.6511 4.09883ZM8.12787 18.8909C8.17706 17.8251 9.0071 16.9999 10.0645 16.9999C11.1633 16.9999 12 17.8553 12 18.8448C12 19.8182 11.1528 21.1253 9.0177 21.7716C8.08223 22.0548 7.33769 22.0389 6.77807 21.914C7.41304 21.3131 8.05943 20.3739 8.12787 18.8909ZM10.0645 14.9999C7.60941 14.9999 5.99336 16.9609 5.99336 18.9999C5.94817 19.979 5.64137 20.2794 5.22528 20.6171C5.11349 20.7079 5.0018 20.7877 4.88731 20.8672L4.83597 20.9027C4.74294 20.9669 4.62526 21.0482 4.53178 21.1224C4.47199 21.1699 4.39102 21.2384 4.31317 21.3248C4.24012 21.4059 4.12177 21.5549 4.05314 21.7692C3.97409 22.016 3.97848 22.2982 4.09891 22.5633C4.20489 22.7966 4.36732 22.9428 4.47499 23.0237C5.31747 23.6566 7.06775 24.4515 9.59717 23.6858C12.2309 22.8886 14 21.5028 14 18.996C14 17.1406 12.5195 14.9999 10.0645 14.9999Z" fill="#3F8AE0"/>
</svg>
