<svg width="28" height="28" viewBox="0 0 28 28" fill="none" xmlns="http://www.w3.org/2000/svg">
<path fill-rule="evenodd" clip-rule="evenodd" d="M17.5001 10C17.8789 10 18.2251 10.214 18.3945 10.5528L24.8945 23.5528C25.1415 24.0468 24.9413 24.6474 24.4473 24.8944C23.9533 25.1414 23.3527 24.9412 23.1057 24.4472L20.8821 20H14.1181L11.8945 24.4472C11.6475 24.9412 11.0469 25.1414 10.5529 24.8944C10.0589 24.6474 9.8587 24.0468 10.1057 23.5528L16.6057 10.5528C16.7751 10.214 17.1213 10 17.5001 10ZM15.1181 18H19.8821L17.5001 13.2361L15.1181 18Z" fill="#2688EB"/>
<path d="M4.00396 6C3.45168 6 3.00396 6.44772 3.00396 7C3.00396 7.55228 3.45168 8 4.00396 8H12.0025C12.0025 8.21489 12.007 8.43031 12.0009 8.64513C11.9618 10.0155 11.238 11.2751 10.1589 12.0908L9.53228 12.5645L7.78093 10.3753C7.43592 9.94404 6.80662 9.87412 6.37536 10.2191C5.9441 10.5641 5.87418 11.1934 6.21919 11.6247L7.93622 13.771L3.39704 17.2023C2.95646 17.5353 2.86929 18.1624 3.20233 18.603C3.53537 19.0436 4.16251 19.1308 4.60308 18.7977L9.18609 15.3333L10.2192 16.6247C10.5642 17.056 11.1935 17.1259 11.6248 16.7809C12.056 16.4359 12.1259 15.8066 11.7809 15.3753L10.7821 14.1268L11.3773 13.6769C12.9295 12.5036 13.9441 10.6632 14.0001 8.70216L14 8H17.0031C17.5554 8 18.0031 7.55228 18.0031 7C18.0031 6.44772 17.5554 6 17.0031 6H12.0001V4.00317C12.0001 3.45089 11.5523 3.00317 11.0001 3.00317C10.4478 3.00317 10.0001 3.45089 10.0001 4.00317V6H4.00396Z" fill="#2688EB"/>
</svg>
