<svg width="28" height="28" viewBox="0 0 28 28" fill="none" xmlns="http://www.w3.org/2000/svg">
<path fill-rule="evenodd" clip-rule="evenodd" d="M16.4053 11.7929C15.9506 12.7871 15.3579 13.8134 14.5861 14.585C13.8143 15.3566 12.7877 15.9491 11.7933 16.4037C12.7877 16.8584 13.8143 17.4509 14.5861 18.2225C15.3575 18.9937 15.9503 20.0184 16.4053 21.0109C16.8603 20.0184 17.4531 18.9937 18.2246 18.2225C18.996 17.4513 20.0209 16.8586 21.0137 16.4037C20.0209 15.9489 18.996 15.3562 18.2246 14.585C17.4528 13.8134 16.8601 12.7871 16.4053 11.7929ZM15.3571 8.95856C14.8306 10.5667 14.1037 12.2396 13.1719 13.1711C12.2401 14.1027 10.5667 14.8294 8.95812 15.3558C8.79416 15.4094 8.63088 15.461 8.46912 15.5105C8.1078 15.621 7.7541 15.7212 7.41754 15.8111C7.32065 15.837 7.22519 15.862 7.13137 15.8862C6.68453 16.0013 6.68453 16.8061 7.13137 16.9213C7.22519 16.9454 7.32065 16.9705 7.41754 16.9963C7.7541 17.0862 8.1078 17.1864 8.46912 17.297C8.63088 17.3465 8.79416 17.3981 8.95812 17.4517C10.5667 17.9781 12.2401 18.7048 13.1719 19.6363C14.1035 20.5677 14.8303 22.2358 15.3568 23.8387C15.4102 24.0013 15.4616 24.1633 15.5109 24.3237C15.6217 24.6845 15.7222 25.0377 15.8123 25.3737C15.8384 25.4709 15.8636 25.5666 15.8879 25.6607C16.0034 26.1071 16.8073 26.1071 16.9227 25.6607C16.9471 25.5666 16.9723 25.4709 16.9983 25.3737C17.0885 25.0377 17.1889 24.6845 17.2998 24.3237C17.3491 24.1633 17.4004 24.0013 17.4539 23.8387C17.9804 22.2358 18.7071 20.5677 19.6388 19.6363C20.5704 18.7049 22.239 17.9784 23.8422 17.452C24.0049 17.3986 24.1669 17.3473 24.3274 17.298C24.6883 17.1871 25.0415 17.0867 25.3776 16.9966C25.4748 16.9705 25.5706 16.9454 25.6648 16.921C26.1112 16.8056 26.1112 16.0019 25.6648 15.8865C25.5706 15.8621 25.4748 15.8369 25.3776 15.8109C25.0415 15.7208 24.6883 15.6204 24.3274 15.5095C24.1669 15.4602 24.0049 15.4089 23.8422 15.3555C22.239 14.8291 20.5704 14.1025 19.6388 13.1711C18.707 12.2396 17.9801 10.5667 17.4536 8.95856C17.3999 8.79465 17.3483 8.63142 17.2988 8.46971C17.1882 8.10849 17.088 7.75488 16.9981 7.41842C16.9722 7.32155 16.9472 7.22611 16.923 7.13232C16.8078 6.6856 16.0028 6.6856 15.8877 7.13232C15.8635 7.22611 15.8385 7.32155 15.8126 7.41842C15.7226 7.75488 15.6224 8.10849 15.5118 8.46971C15.4623 8.63142 15.4107 8.79465 15.3571 8.95856Z" fill="#3F8AE0"/>
<path d="M7.29687 2.36328C7.13336 1.87289 6.43953 1.87289 6.27603 2.36328L5.62479 4.31647C5.4197 4.93159 4.93688 5.41428 4.32159 5.61932L2.36789 6.27038C1.87737 6.43385 1.87737 7.12749 2.36789 7.29096L4.31676 7.94041C4.93477 8.14636 5.41896 8.63234 5.62252 9.251L6.27536 11.2351C6.4376 11.7282 7.1353 11.7282 7.29754 11.2351L7.94878 9.25584C8.15323 8.63447 8.64073 8.1471 9.26227 7.9427L11.2421 7.29162C11.7353 7.12943 11.7353 6.43191 11.2421 6.26972L9.25742 5.61705C8.63861 5.41354 8.15249 4.92948 7.94649 4.31163L7.29687 2.36328Z" fill="#3F8AE0"/>
</svg>
